M48
;Layer_Color=9474304
;FILE_FORMAT=4:4
METRIC,LZ
;TYPE=PLATED
T1F00S00C0.3556
T2F00S00C0.4572
T3F00S00C1.0000
T4F00S00C1.0160
T5F00S00C1.0200
T6F00S00C2.0320
T7F00S00C2.1000
%
T01
X0011684Y0014224
X00217304Y00103005
X0022733Y0010541
X00254Y0005461
X0026543Y0005588
X0025527Y0004191
X0025019Y0003302
X0025654Y00024765
X0026035Y0001524
X0035941Y0007366
X0035814Y0008763
X0028956Y0014351
X0035814Y00254
X0035687Y002667
X004572Y0027178
X0046482Y002794
X0044958Y003048
X0028702Y0032385
X0028829Y0033782
Y0035814
X0030734Y00359664
X002286Y0028575
X00218023Y00284897
X0011811Y0027178
T02
X0051308Y0013716
X0058674Y0004953
X0051308Y002159
Y003175
X004699Y003429
X0031369Y0018415
X0029972Y0018669
X0028575Y0015621
X0013208Y0034798
T03
X000508Y000639
Y000889
Y001089
Y001339
Y0025821
Y0028321
Y0030321
Y0032821
T04
X0058801Y00076199
Y00101599
Y00126999
Y00152399
Y00241299
Y00266699
Y00292099
Y00317499
T05
X0025527Y-0003556
X0028067
X0030607
X0033147
Y-0001016
X0030607
X0028067
X0025527
X0035687
Y-0003556
X0038227
Y-0001016
X0040767
Y-0003556
T06
X0010668Y000254
X0063246
Y0036703
X0010668
T07
X000237Y000289
Y001689
Y0022321
Y0036321
M30
