G04*
G04 #@! TF.GenerationSoftware,Altium Limited,Altium Designer,20.0.13 (296)*
G04*
G04 Layer_Physical_Order=2*
G04 Layer_Color=16711680*
%FSLAX44Y44*%
%MOMM*%
G71*
G01*
G75*
%ADD10C,0.2540*%
%ADD31R,0.9500X1.0500*%
%ADD35C,0.5080*%
%ADD36C,0.3048*%
%ADD37C,0.6096*%
%ADD38C,0.3556*%
%ADD39C,0.6350*%
%ADD40C,3.8100*%
%ADD41C,1.7780*%
%ADD42C,1.7000*%
%ADD43C,3.5000*%
%ADD44O,2.5000X1.5240*%
%ADD45C,0.7620*%
%ADD46R,2.0000X1.7000*%
%ADD47R,1.1000X0.9000*%
%ADD48R,0.6000X1.4000*%
%ADD49C,0.6350*%
G36*
X146900Y212660D02*
X146900D01*
Y198580D01*
X146900D01*
Y197660D01*
X146900D01*
Y184651D01*
X145630Y184125D01*
X138850Y190905D01*
Y197660D01*
X138850D01*
Y198580D01*
X138850D01*
Y212660D01*
X138850D01*
X139204Y213783D01*
X146546D01*
X146900Y212660D01*
D02*
G37*
G36*
X122770Y198580D02*
X122770D01*
Y197660D01*
X122770D01*
Y183580D01*
X131525D01*
X136832Y178273D01*
X136346Y177100D01*
X122770D01*
Y177100D01*
X121678Y176648D01*
X116283Y182044D01*
Y200057D01*
X116710Y200790D01*
X117443Y201217D01*
X122770D01*
Y198580D01*
D02*
G37*
G36*
X120235Y166112D02*
X121920Y165777D01*
X122770D01*
Y163020D01*
X122770D01*
Y162100D01*
X122770D01*
Y148020D01*
X138850D01*
Y149881D01*
X192045D01*
X230028Y111896D01*
X229993Y111812D01*
X229280Y110849D01*
X227828Y111138D01*
X201953Y137013D01*
X200525Y137967D01*
X198840Y138303D01*
X122430D01*
X121831Y139423D01*
X122223Y140010D01*
X122667Y142240D01*
X122223Y144470D01*
X120960Y146360D01*
X119237Y147512D01*
X118209Y148539D01*
Y158380D01*
X118140Y158729D01*
Y165985D01*
X119410Y166664D01*
X120235Y166112D01*
D02*
G37*
G36*
X664210Y0D02*
X478790D01*
X425450Y-53340D01*
X234950D01*
X181709Y-99D01*
X181850Y1170D01*
X236615D01*
X244675Y-6890D01*
X244514Y-7278D01*
X244135Y-10160D01*
X244514Y-13042D01*
X245627Y-15728D01*
X247396Y-18034D01*
X249702Y-19803D01*
X252388Y-20916D01*
X255270Y-21295D01*
X258152Y-20916D01*
X260838Y-19803D01*
X262556Y-18485D01*
X263826Y-19111D01*
Y-20320D01*
X264142Y-21906D01*
X265040Y-23250D01*
X271355Y-29565D01*
X271027Y-29992D01*
X269914Y-32678D01*
X269535Y-35560D01*
X269914Y-38442D01*
X271027Y-41128D01*
X272796Y-43434D01*
X275102Y-45203D01*
X277788Y-46316D01*
X280670Y-46695D01*
X283552Y-46316D01*
X286238Y-45203D01*
X288544Y-43434D01*
X290313Y-41128D01*
X291426Y-38442D01*
X291805Y-35560D01*
X291426Y-32678D01*
X290313Y-29992D01*
X288544Y-27686D01*
X286238Y-25917D01*
X283552Y-24804D01*
X280670Y-24425D01*
X278253Y-24743D01*
X274294Y-20784D01*
X275102Y-19803D01*
X277788Y-20916D01*
X280670Y-21295D01*
X283552Y-20916D01*
X286238Y-19803D01*
X288544Y-18034D01*
X290313Y-15728D01*
X291426Y-13042D01*
X291805Y-10160D01*
X291426Y-7278D01*
X290313Y-4592D01*
X288544Y-2286D01*
X286238Y-517D01*
X285073Y-34D01*
Y52786D01*
X300494Y68208D01*
X301667Y67722D01*
Y-34D01*
X300502Y-517D01*
X298196Y-2286D01*
X296427Y-4592D01*
X295314Y-7278D01*
X294935Y-10160D01*
X295314Y-13042D01*
X296427Y-15728D01*
X298196Y-18034D01*
X300502Y-19803D01*
X303188Y-20916D01*
X306070Y-21295D01*
X308952Y-20916D01*
X311638Y-19803D01*
X313944Y-18034D01*
X315713Y-15728D01*
X316826Y-13042D01*
X317205Y-10160D01*
X316826Y-7278D01*
X315713Y-4592D01*
X313944Y-2286D01*
X311638Y-517D01*
X310473Y-34D01*
Y68026D01*
X362207Y119761D01*
X363380Y119274D01*
Y102710D01*
X363503D01*
X363989Y101537D01*
X354572Y92119D01*
X354020Y91750D01*
X352757Y89860D01*
X352313Y87630D01*
X352757Y85400D01*
X354020Y83510D01*
X355910Y82247D01*
X358140Y81803D01*
X360370Y82247D01*
X362110Y83409D01*
X362760Y83237D01*
X363380Y82900D01*
Y79358D01*
X360061D01*
X359410Y79487D01*
X357180Y79043D01*
X355290Y77780D01*
X354027Y75890D01*
X353583Y73660D01*
X354027Y71430D01*
X355290Y69540D01*
X357180Y68277D01*
X359410Y67833D01*
X360061Y67962D01*
X363380D01*
Y65710D01*
X388460D01*
Y70503D01*
X398210D01*
Y68410D01*
X418730D01*
Y76200D01*
Y83990D01*
X398210D01*
Y81897D01*
X388460D01*
Y87790D01*
X368017D01*
X367531Y88963D01*
X378679Y100111D01*
X379914Y101960D01*
X380063Y102710D01*
X388460D01*
Y108603D01*
X398210D01*
Y106510D01*
X418730D01*
Y114300D01*
Y122090D01*
X398210D01*
Y119998D01*
X388460D01*
Y124790D01*
X368895D01*
X368410Y125963D01*
X467933Y225487D01*
X468887Y226915D01*
X469223Y228600D01*
Y275702D01*
X470203Y277170D01*
X470647Y279400D01*
X470203Y281630D01*
X468940Y283520D01*
X467050Y284783D01*
X464820Y285227D01*
X462590Y284783D01*
X460700Y283520D01*
X459437Y281630D01*
X458993Y279400D01*
X459170Y278510D01*
X458090Y277430D01*
X457200Y277607D01*
X454970Y277163D01*
X454844Y277079D01*
X453724Y277678D01*
Y300715D01*
X454963Y302570D01*
X455407Y304800D01*
X454963Y307030D01*
X453700Y308920D01*
X451810Y310183D01*
X449580Y310627D01*
X447350Y310183D01*
X445460Y308920D01*
X444197Y307030D01*
X443753Y304800D01*
X444197Y302570D01*
X445436Y300715D01*
Y233498D01*
X271898Y59960D01*
X271501Y59366D01*
X269974D01*
X269550Y60000D01*
X267660Y61263D01*
X267300Y61335D01*
X257910Y70725D01*
Y118073D01*
X257910Y118073D01*
X257515Y120055D01*
X256392Y121735D01*
X204165Y173962D01*
X202485Y175085D01*
X200503Y175480D01*
X168395D01*
X161468Y182407D01*
X161954Y183580D01*
X162980D01*
Y197660D01*
X162980D01*
Y198580D01*
X162980D01*
Y212660D01*
X160286D01*
X159343Y213360D01*
X159008Y215045D01*
X158053Y216473D01*
X153227Y221299D01*
X151799Y222253D01*
X150114Y222589D01*
X117003D01*
Y224080D01*
X118140D01*
Y243160D01*
X85060D01*
Y224080D01*
X86197D01*
Y221820D01*
X86532Y220135D01*
X87487Y218707D01*
X107477Y198716D01*
Y180220D01*
X107812Y178535D01*
X108767Y177107D01*
X116350Y169523D01*
X115864Y168350D01*
X85060D01*
Y158729D01*
X84991Y158380D01*
Y151229D01*
X83425D01*
X82649Y152005D01*
Y252715D01*
X96965Y267031D01*
X113030D01*
X113615Y267147D01*
X115632Y265798D01*
X118110Y265306D01*
X120588Y265798D01*
X122688Y267202D01*
X124092Y269302D01*
X124584Y271780D01*
X124092Y274258D01*
X122688Y276358D01*
X120588Y277762D01*
X118209Y278235D01*
Y289190D01*
X118140Y289540D01*
Y299160D01*
X85060D01*
Y280080D01*
X85724D01*
X86081Y278810D01*
X85815Y278412D01*
X85421Y276430D01*
X85815Y274448D01*
X86938Y272768D01*
X87495Y272210D01*
X73808Y258522D01*
X72685Y256842D01*
X72291Y254860D01*
Y155040D01*
X40640D01*
X39747Y154862D01*
X39053Y156019D01*
X40443Y157712D01*
X42304Y161194D01*
X43450Y164972D01*
X43837Y168900D01*
X43450Y172829D01*
X42304Y176606D01*
X40443Y180088D01*
X37939Y183139D01*
X34887Y185643D01*
X31406Y187504D01*
X27629Y188650D01*
X23700Y189037D01*
X19771Y188650D01*
X15994Y187504D01*
X12513Y185643D01*
X9461Y183139D01*
X6957Y180088D01*
X5096Y176606D01*
X3950Y172829D01*
X3563Y168900D01*
X3950Y164972D01*
X5096Y161194D01*
X6957Y157712D01*
X9461Y154661D01*
X12513Y152157D01*
X15994Y150296D01*
X19771Y149150D01*
X23700Y148763D01*
X27629Y149150D01*
X31406Y150296D01*
X32585Y150926D01*
X33350Y149895D01*
X23008Y139552D01*
X21885Y137872D01*
X21490Y135890D01*
Y63500D01*
X21885Y61518D01*
X23008Y59837D01*
X35707Y47137D01*
X37388Y46015D01*
X39370Y45620D01*
X96016D01*
X96334Y44351D01*
X94627Y43438D01*
X91340Y40740D01*
X88642Y37453D01*
X86637Y33702D01*
X85402Y29632D01*
X85111Y26670D01*
X128249D01*
X127958Y29632D01*
X126723Y33702D01*
X124718Y37453D01*
X123996Y38333D01*
X124938Y39187D01*
X161437Y2688D01*
X163118Y1565D01*
X164600Y1270D01*
X164475Y0D01*
X0D01*
Y392430D01*
X664210D01*
Y0D01*
D02*
G37*
G36*
X124207Y111060D02*
X124040Y109790D01*
X124040D01*
Y95710D01*
X124040D01*
Y94790D01*
X124040D01*
Y80710D01*
X126901D01*
Y66234D01*
X125727Y65748D01*
X122922Y68552D01*
X121242Y69675D01*
X119260Y70069D01*
X113450D01*
Y71930D01*
X113450D01*
Y72850D01*
X113450D01*
Y86930D01*
X97370D01*
X97370Y86930D01*
Y86930D01*
X96413Y87613D01*
X95003Y89024D01*
Y93270D01*
X118140D01*
Y111209D01*
X124108D01*
X124207Y111060D01*
D02*
G37*
G36*
X35956Y136055D02*
X35672Y133900D01*
X36021Y131248D01*
X37045Y128776D01*
X38674Y126654D01*
X40796Y125025D01*
X43268Y124002D01*
X45920Y123652D01*
X55680D01*
X58332Y124002D01*
X60804Y125025D01*
X62926Y126654D01*
X64555Y128776D01*
X64854Y129497D01*
X82708D01*
X83194Y128324D01*
X68172Y113303D01*
X64854D01*
X64555Y114024D01*
X62926Y116146D01*
X60804Y117775D01*
X58332Y118799D01*
X55680Y119148D01*
X45920D01*
X43268Y118799D01*
X40796Y117775D01*
X38674Y116146D01*
X37045Y114024D01*
X36021Y111552D01*
X35672Y108900D01*
X36021Y106248D01*
X37045Y103776D01*
X38674Y101654D01*
X40796Y100025D01*
X41853Y99587D01*
Y98213D01*
X40796Y97775D01*
X38674Y96146D01*
X37045Y94024D01*
X36021Y91552D01*
X35672Y88900D01*
X36021Y86248D01*
X37045Y83776D01*
X38674Y81654D01*
X40796Y80025D01*
X43268Y79001D01*
X45920Y78652D01*
X55680D01*
X58332Y79001D01*
X60804Y80025D01*
X62926Y81654D01*
X64555Y83776D01*
X65578Y86248D01*
X65928Y88900D01*
X65578Y91552D01*
X64555Y94024D01*
X62926Y96146D01*
X60804Y97775D01*
X59747Y98213D01*
Y99587D01*
X60804Y100025D01*
X62926Y101654D01*
X64555Y103776D01*
X64854Y104497D01*
X69996D01*
X71681Y104832D01*
X73109Y105787D01*
X90724Y123401D01*
X101546D01*
X102032Y122228D01*
X98487Y118683D01*
X97533Y117255D01*
X97197Y115570D01*
Y112350D01*
X85060D01*
Y93270D01*
X86197D01*
Y87200D01*
X86532Y85515D01*
X87487Y84087D01*
X94677Y76897D01*
X96105Y75943D01*
X97370Y75691D01*
Y72850D01*
X97370D01*
Y71930D01*
X97370D01*
Y57850D01*
X113450D01*
Y59710D01*
X117114D01*
X119576Y57249D01*
X119050Y55979D01*
X64010D01*
X63383Y57249D01*
X64555Y58776D01*
X65578Y61248D01*
X65928Y63900D01*
X65578Y66552D01*
X64555Y69024D01*
X62926Y71146D01*
X60804Y72775D01*
X58332Y73798D01*
X55680Y74148D01*
X45920D01*
X43268Y73798D01*
X40796Y72775D01*
X38674Y71146D01*
X37045Y69024D01*
X36021Y66552D01*
X35672Y63900D01*
X35729Y63466D01*
X34590Y62905D01*
X31850Y65645D01*
Y133745D01*
X34753Y136648D01*
X35956Y136055D01*
D02*
G37*
G36*
X148144Y111060D02*
X147618Y109790D01*
X145630D01*
Y95710D01*
X145630D01*
Y94790D01*
X145630D01*
Y80710D01*
X148490D01*
Y55420D01*
X147317Y54934D01*
X137260Y64992D01*
Y80710D01*
X140120D01*
Y94790D01*
X140120D01*
Y95710D01*
X140120D01*
Y109790D01*
X136483D01*
Y110490D01*
X136147Y112175D01*
X135193Y113603D01*
X132664Y116132D01*
X133150Y117305D01*
X141898D01*
X148144Y111060D01*
D02*
G37*
G36*
X212216Y105676D02*
X211921Y105234D01*
X211478Y103005D01*
X211921Y100775D01*
X213184Y98884D01*
X215075Y97621D01*
X217304Y97177D01*
X219534Y97621D01*
X221425Y98884D01*
X222435Y100396D01*
X222763Y100774D01*
X223983Y100773D01*
X225100Y100027D01*
X227330Y99583D01*
X229560Y100027D01*
X231040Y101016D01*
X232311Y100465D01*
Y59446D01*
X232705Y57464D01*
X233827Y55783D01*
X249589Y40022D01*
X249426Y39087D01*
X249065Y38623D01*
X247960Y38403D01*
X246070Y37140D01*
X245929Y36930D01*
X176098D01*
X158849Y54178D01*
Y80710D01*
X161710D01*
Y94790D01*
X161710D01*
Y95710D01*
X161710D01*
Y109790D01*
X158073D01*
Y111760D01*
X157738Y113445D01*
X156783Y114873D01*
X149428Y122228D01*
X149914Y123401D01*
X194491D01*
X212216Y105676D01*
D02*
G37*
G36*
X261310Y51760D02*
X263200Y50497D01*
X265430Y50053D01*
X267660Y50497D01*
X269414Y51669D01*
X270684Y51345D01*
Y8574D01*
X265040Y2930D01*
X264142Y1586D01*
X263826Y0D01*
Y-1209D01*
X262556Y-1835D01*
X260838Y-517D01*
X258152Y596D01*
X255270Y975D01*
X252388Y596D01*
X252000Y435D01*
X243645Y8791D01*
X244170Y10060D01*
X257815D01*
X258120Y9857D01*
X260350Y9413D01*
X262580Y9857D01*
X264470Y11120D01*
X265733Y13010D01*
X266177Y15240D01*
X265733Y17470D01*
X264470Y19360D01*
X262580Y20623D01*
X261994Y20740D01*
X261508Y21913D01*
X261923Y22535D01*
X262367Y24765D01*
X261923Y26995D01*
X260660Y28885D01*
X258770Y30148D01*
X256723Y30556D01*
X256539Y30593D01*
X255761Y31732D01*
X256017Y33020D01*
X255573Y35250D01*
X256395Y36307D01*
X257500Y36527D01*
X259390Y37790D01*
X260653Y39680D01*
X261097Y41910D01*
X260653Y44140D01*
X259390Y46030D01*
X257500Y47293D01*
X257190Y47355D01*
X256543Y48261D01*
X256819Y49620D01*
X258120Y50490D01*
X259383Y52380D01*
X260728Y52630D01*
X261310Y51760D01*
D02*
G37*
%LPC*%
G36*
X633730Y388599D02*
Y368300D01*
X654029D01*
X653738Y371262D01*
X652503Y375332D01*
X650498Y379083D01*
X647800Y382370D01*
X644513Y385068D01*
X640762Y387073D01*
X636692Y388308D01*
X633730Y388599D01*
D02*
G37*
G36*
X631190D02*
X628228Y388308D01*
X624158Y387073D01*
X620407Y385068D01*
X617120Y382370D01*
X614422Y379083D01*
X612417Y375332D01*
X611182Y371262D01*
X610891Y368300D01*
X631190D01*
Y388599D01*
D02*
G37*
G36*
X107950D02*
Y368300D01*
X128249D01*
X127958Y371262D01*
X126723Y375332D01*
X124718Y379083D01*
X122020Y382370D01*
X118733Y385068D01*
X114982Y387073D01*
X110912Y388308D01*
X107950Y388599D01*
D02*
G37*
G36*
X105410D02*
X102448Y388308D01*
X98378Y387073D01*
X94627Y385068D01*
X91340Y382370D01*
X88642Y379083D01*
X86637Y375332D01*
X85402Y371262D01*
X85111Y368300D01*
X105410D01*
Y388599D01*
D02*
G37*
G36*
X654029Y365760D02*
X633730D01*
Y345461D01*
X636692Y345752D01*
X640762Y346987D01*
X644513Y348992D01*
X647800Y351690D01*
X650498Y354977D01*
X652503Y358728D01*
X653738Y362798D01*
X654029Y365760D01*
D02*
G37*
G36*
X631190D02*
X610891D01*
X611182Y362798D01*
X612417Y358728D01*
X614422Y354977D01*
X617120Y351690D01*
X620407Y348992D01*
X624158Y346987D01*
X628228Y345752D01*
X631190Y345461D01*
Y365760D01*
D02*
G37*
G36*
X128249D02*
X107950D01*
Y345461D01*
X110912Y345752D01*
X114982Y346987D01*
X118733Y348992D01*
X122020Y351690D01*
X124718Y354977D01*
X126723Y358728D01*
X127958Y362798D01*
X128249Y365760D01*
D02*
G37*
G36*
X105410D02*
X85111D01*
X85402Y362798D01*
X86637Y358728D01*
X88642Y354977D01*
X91340Y351690D01*
X94627Y348992D01*
X98378Y346987D01*
X102448Y345752D01*
X105410Y345461D01*
Y365760D01*
D02*
G37*
G36*
X23700Y383347D02*
X19771Y382960D01*
X15994Y381814D01*
X12513Y379953D01*
X9461Y377449D01*
X6957Y374398D01*
X5096Y370916D01*
X3950Y367138D01*
X3563Y363210D01*
X3950Y359282D01*
X5096Y355504D01*
X6957Y352023D01*
X9461Y348971D01*
X12513Y346467D01*
X15994Y344606D01*
X19771Y343460D01*
X23700Y343073D01*
X27629Y343460D01*
X31406Y344606D01*
X34887Y346467D01*
X37939Y348971D01*
X40443Y352023D01*
X42304Y355504D01*
X43450Y359282D01*
X43837Y363210D01*
X43450Y367138D01*
X42304Y370916D01*
X40443Y374398D01*
X37939Y377449D01*
X34887Y379953D01*
X31406Y381814D01*
X27629Y382960D01*
X23700Y383347D01*
D02*
G37*
G36*
X440690Y377808D02*
X156210D01*
X154030Y377374D01*
X152181Y376139D01*
X130104Y354061D01*
X129602Y353962D01*
X127502Y352558D01*
X126098Y350458D01*
X125606Y347980D01*
X126098Y345502D01*
X127502Y343402D01*
X129602Y341998D01*
X132080Y341506D01*
X134558Y341998D01*
X136658Y343402D01*
X138062Y345502D01*
X138161Y346004D01*
X158570Y366413D01*
X305463D01*
X305588Y365143D01*
X305110Y365047D01*
X303220Y363784D01*
X301957Y361894D01*
X301513Y359664D01*
X301957Y357434D01*
X302160Y357129D01*
Y346315D01*
X294995Y339150D01*
X293779Y339518D01*
X293673Y340050D01*
X293470Y340355D01*
Y355605D01*
X293673Y355910D01*
X294117Y358140D01*
X293673Y360370D01*
X292410Y362260D01*
X290520Y363523D01*
X288290Y363967D01*
X286060Y363523D01*
X284170Y362260D01*
X282907Y360370D01*
X282463Y358140D01*
X282907Y355910D01*
X283111Y355605D01*
Y340355D01*
X282907Y340050D01*
X282463Y337820D01*
X282907Y335590D01*
X284170Y333700D01*
X286060Y332437D01*
X286592Y332331D01*
X286961Y331115D01*
X285150Y329305D01*
X284790Y329233D01*
X282900Y327970D01*
X281637Y326080D01*
X281193Y323850D01*
X281637Y321620D01*
X282900Y319730D01*
X284790Y318467D01*
X287020Y318023D01*
X289250Y318467D01*
X291140Y319730D01*
X292403Y321620D01*
X292475Y321980D01*
X311003Y340508D01*
X312125Y342188D01*
X312519Y344170D01*
Y357129D01*
X312723Y357434D01*
X313167Y359664D01*
X312723Y361894D01*
X311460Y363784D01*
X309570Y365047D01*
X309092Y365143D01*
X309217Y366413D01*
X438330D01*
X463819Y340924D01*
X463918Y340422D01*
X465322Y338322D01*
X467422Y336918D01*
X469900Y336426D01*
X472378Y336918D01*
X474478Y338322D01*
X475882Y340422D01*
X476374Y342900D01*
X475882Y345378D01*
X474478Y347478D01*
X472378Y348882D01*
X471876Y348981D01*
X444719Y376139D01*
X442870Y377374D01*
X440690Y377808D01*
D02*
G37*
G36*
X588010Y329027D02*
X585026Y328634D01*
X582246Y327483D01*
X579858Y325651D01*
X578026Y323263D01*
X576874Y320483D01*
X576481Y317499D01*
X576874Y314515D01*
X578026Y311734D01*
X579858Y309347D01*
X582246Y307515D01*
X585026Y306363D01*
X588010Y305970D01*
X590994Y306363D01*
X593774Y307515D01*
X596162Y309347D01*
X597994Y311734D01*
X599146Y314515D01*
X599539Y317499D01*
X599146Y320483D01*
X597994Y323263D01*
X596162Y325651D01*
X593774Y327483D01*
X590994Y328634D01*
X588010Y329027D01*
D02*
G37*
G36*
X427290Y298620D02*
X421270D01*
Y292100D01*
X427290D01*
Y298620D01*
D02*
G37*
G36*
Y289560D02*
X421270D01*
Y283040D01*
X427290D01*
Y289560D01*
D02*
G37*
G36*
X388460Y301320D02*
X363380D01*
Y279240D01*
X366043D01*
X366529Y278067D01*
X360860Y272397D01*
X357521D01*
X356870Y272527D01*
X354640Y272083D01*
X352750Y270820D01*
X351487Y268930D01*
X351043Y266700D01*
X351487Y264470D01*
X352750Y262580D01*
X354640Y261317D01*
X356870Y260873D01*
X356872Y260870D01*
X356307Y259462D01*
X355910Y259383D01*
X354020Y258120D01*
X352757Y256230D01*
X352313Y254000D01*
X352757Y251770D01*
X354020Y249880D01*
X354727Y249407D01*
X354831Y249251D01*
X356680Y248016D01*
X358860Y247582D01*
X363380D01*
Y242240D01*
X388460D01*
Y248173D01*
X398210D01*
Y246210D01*
X418730D01*
Y254000D01*
Y261790D01*
X398210D01*
Y259827D01*
X388460D01*
Y264320D01*
X370557D01*
X370071Y265493D01*
X379949Y275371D01*
X381184Y277220D01*
X381586Y279240D01*
X388460D01*
Y285003D01*
X398210D01*
Y283040D01*
X418730D01*
Y290830D01*
Y298620D01*
X398210D01*
Y296657D01*
X388460D01*
Y301320D01*
D02*
G37*
G36*
X588010Y303627D02*
X585026Y303235D01*
X582246Y302083D01*
X579858Y300251D01*
X578026Y297863D01*
X576874Y295083D01*
X576481Y292099D01*
X576874Y289115D01*
X578026Y286334D01*
X579858Y283947D01*
X582246Y282115D01*
X585026Y280963D01*
X588010Y280570D01*
X590994Y280963D01*
X593774Y282115D01*
X596162Y283947D01*
X597994Y286334D01*
X599146Y289115D01*
X599539Y292099D01*
X599146Y295083D01*
X597994Y297863D01*
X596162Y300251D01*
X593774Y302083D01*
X590994Y303235D01*
X588010Y303627D01*
D02*
G37*
G36*
X55680Y338458D02*
X45920D01*
X43268Y338108D01*
X40796Y337085D01*
X38674Y335456D01*
X37045Y333334D01*
X36021Y330862D01*
X35672Y328210D01*
X36021Y325558D01*
X37045Y323086D01*
X38674Y320964D01*
X40796Y319335D01*
X43268Y318312D01*
X45920Y317962D01*
X55680D01*
X58332Y318312D01*
X60804Y319335D01*
X62926Y320964D01*
X64555Y323086D01*
X65068Y324325D01*
X86752D01*
X87238Y323152D01*
X71181Y307095D01*
X65068D01*
X64555Y308334D01*
X62926Y310456D01*
X60804Y312085D01*
X58332Y313109D01*
X55680Y313458D01*
X45920D01*
X43268Y313109D01*
X40796Y312085D01*
X38674Y310456D01*
X37045Y308334D01*
X36021Y305862D01*
X35672Y303210D01*
X36021Y300558D01*
X37045Y298086D01*
X38674Y295964D01*
X40796Y294335D01*
X41853Y293897D01*
Y292523D01*
X40796Y292085D01*
X38674Y290456D01*
X37045Y288334D01*
X36021Y285862D01*
X35672Y283210D01*
X36021Y280558D01*
X37045Y278086D01*
X38674Y275964D01*
X40796Y274335D01*
X43268Y273312D01*
X45920Y272962D01*
X55680D01*
X58332Y273312D01*
X60804Y274335D01*
X62926Y275964D01*
X64555Y278086D01*
X65578Y280558D01*
X65928Y283210D01*
X65578Y285862D01*
X64555Y288334D01*
X62926Y290456D01*
X60804Y292085D01*
X59747Y292523D01*
Y293897D01*
X60804Y294335D01*
X62926Y295964D01*
X64555Y298086D01*
X65068Y299325D01*
X72790D01*
X74277Y299621D01*
X75537Y300463D01*
X94319Y319245D01*
X182427D01*
X213403Y288269D01*
X212640Y287127D01*
X212196Y284897D01*
X212640Y282667D01*
X213903Y280777D01*
X215793Y279514D01*
X218023Y279070D01*
X220253Y279514D01*
X222143Y280777D01*
X222833Y281809D01*
X224360D01*
X224480Y281630D01*
X226370Y280367D01*
X228600Y279923D01*
X230830Y280367D01*
X232720Y281630D01*
X233983Y283520D01*
X234427Y285750D01*
X233983Y287980D01*
X232720Y289870D01*
X230830Y291133D01*
X228600Y291577D01*
X228322Y291522D01*
X188887Y330957D01*
X187627Y331799D01*
X186140Y332095D01*
X65068D01*
X64555Y333334D01*
X62926Y335456D01*
X60804Y337085D01*
X58332Y338108D01*
X55680Y338458D01*
D02*
G37*
G36*
X427290Y261790D02*
X421270D01*
Y255270D01*
X427290D01*
Y261790D01*
D02*
G37*
G36*
X588010Y278227D02*
X585026Y277834D01*
X582246Y276683D01*
X579858Y274851D01*
X578026Y272463D01*
X576874Y269683D01*
X576481Y266699D01*
X576874Y263715D01*
X578026Y260934D01*
X579858Y258547D01*
X582246Y256715D01*
X585026Y255563D01*
X588010Y255170D01*
X590994Y255563D01*
X593774Y256715D01*
X596162Y258547D01*
X597994Y260934D01*
X599146Y263715D01*
X599539Y266699D01*
X599146Y269683D01*
X597994Y272463D01*
X596162Y274851D01*
X593774Y276683D01*
X590994Y277834D01*
X588010Y278227D01*
D02*
G37*
G36*
X55680Y268458D02*
X45920D01*
X43268Y268109D01*
X40796Y267085D01*
X38674Y265456D01*
X37045Y263334D01*
X36021Y260862D01*
X35672Y258210D01*
X36021Y255558D01*
X37045Y253086D01*
X38674Y250964D01*
X40796Y249335D01*
X43268Y248312D01*
X45920Y247962D01*
X55680D01*
X58332Y248312D01*
X60804Y249335D01*
X62926Y250964D01*
X64555Y253086D01*
X65578Y255558D01*
X65928Y258210D01*
X65578Y260862D01*
X64555Y263334D01*
X62926Y265456D01*
X60804Y267085D01*
X58332Y268109D01*
X55680Y268458D01*
D02*
G37*
G36*
X427290Y252730D02*
X421270D01*
Y246210D01*
X427290D01*
Y252730D01*
D02*
G37*
G36*
X589280Y252660D02*
Y242569D01*
X599371D01*
X599146Y244283D01*
X597994Y247063D01*
X596162Y249451D01*
X593774Y251283D01*
X590994Y252435D01*
X589280Y252660D01*
D02*
G37*
G36*
X586740D02*
X585026Y252435D01*
X582246Y251283D01*
X579858Y249451D01*
X578026Y247063D01*
X576874Y244283D01*
X576649Y242569D01*
X586740D01*
Y252660D01*
D02*
G37*
G36*
X599371Y240029D02*
X589280D01*
Y229937D01*
X590994Y230163D01*
X593774Y231315D01*
X596162Y233147D01*
X597994Y235534D01*
X599146Y238315D01*
X599371Y240029D01*
D02*
G37*
G36*
X586740D02*
X576649D01*
X576874Y238315D01*
X578026Y235534D01*
X579858Y233147D01*
X582246Y231315D01*
X585026Y230163D01*
X586740Y229937D01*
Y240029D01*
D02*
G37*
G36*
X23700Y243347D02*
X19771Y242960D01*
X15994Y241814D01*
X12513Y239953D01*
X9461Y237449D01*
X6957Y234398D01*
X5096Y230916D01*
X3950Y227139D01*
X3563Y223210D01*
X3950Y219282D01*
X5096Y215504D01*
X6957Y212022D01*
X9461Y208971D01*
X12513Y206467D01*
X15994Y204606D01*
X19771Y203460D01*
X23700Y203073D01*
X27629Y203460D01*
X31406Y204606D01*
X34887Y206467D01*
X37939Y208971D01*
X40443Y212022D01*
X42304Y215504D01*
X43450Y219282D01*
X43837Y223210D01*
X43450Y227139D01*
X42304Y230916D01*
X40443Y234398D01*
X37939Y237449D01*
X34887Y239953D01*
X31406Y241814D01*
X27629Y242960D01*
X23700Y243347D01*
D02*
G37*
G36*
X588010Y163927D02*
X585026Y163535D01*
X582246Y162383D01*
X579858Y160551D01*
X578026Y158163D01*
X576874Y155383D01*
X576481Y152399D01*
X576874Y149415D01*
X578026Y146634D01*
X579858Y144247D01*
X582246Y142415D01*
X585026Y141263D01*
X588010Y140870D01*
X590994Y141263D01*
X593774Y142415D01*
X596162Y144247D01*
X597994Y146634D01*
X599146Y149415D01*
X599539Y152399D01*
X599146Y155383D01*
X597994Y158163D01*
X596162Y160551D01*
X593774Y162383D01*
X590994Y163535D01*
X588010Y163927D01*
D02*
G37*
G36*
X299720Y193164D02*
X297242Y192672D01*
X295142Y191268D01*
X293738Y189168D01*
X293246Y186690D01*
X293738Y184212D01*
X294541Y183012D01*
Y172325D01*
X284688Y162473D01*
X283272Y162192D01*
X281172Y160788D01*
X279768Y158688D01*
X279276Y156210D01*
X279768Y153732D01*
X281172Y151632D01*
X283272Y150228D01*
X285297Y149826D01*
X285618Y148513D01*
X284982Y148088D01*
X283578Y145988D01*
X283086Y143510D01*
X283578Y141032D01*
X284982Y138932D01*
X287082Y137528D01*
X289560Y137036D01*
X292038Y137528D01*
X294138Y138932D01*
X295542Y141032D01*
X295823Y142448D01*
X317353Y163978D01*
X318475Y165658D01*
X318869Y167640D01*
Y180472D01*
X319672Y181672D01*
X320164Y184150D01*
X319672Y186628D01*
X318268Y188728D01*
X316168Y190132D01*
X313690Y190624D01*
X311212Y190132D01*
X309112Y188728D01*
X307708Y186628D01*
X307216Y184150D01*
X307708Y181672D01*
X308510Y180472D01*
Y169785D01*
X294252Y155527D01*
X292902Y155973D01*
X292894Y156029D01*
X303382Y166518D01*
X303382Y166518D01*
X304505Y168198D01*
X304900Y170180D01*
Y183012D01*
X305702Y184212D01*
X306194Y186690D01*
X305702Y189168D01*
X304298Y191268D01*
X302198Y192672D01*
X299720Y193164D01*
D02*
G37*
G36*
X513080Y323974D02*
X510602Y323482D01*
X508502Y322078D01*
X507098Y319978D01*
X506606Y317500D01*
X507098Y315022D01*
X507383Y314597D01*
Y218803D01*
X507098Y218378D01*
X506606Y215900D01*
X507098Y213422D01*
X507383Y212997D01*
Y140063D01*
X507098Y139638D01*
X506606Y137160D01*
X507098Y134682D01*
X508502Y132582D01*
X510602Y131178D01*
X513080Y130686D01*
X515558Y131178D01*
X517658Y132582D01*
X519062Y134682D01*
X519554Y137160D01*
X519062Y139638D01*
X518778Y140063D01*
Y212997D01*
X519062Y213422D01*
X519554Y215900D01*
X519062Y218378D01*
X518778Y218803D01*
Y314597D01*
X519062Y315022D01*
X519554Y317500D01*
X519062Y319978D01*
X517658Y322078D01*
X515558Y323482D01*
X513080Y323974D01*
D02*
G37*
G36*
X427290Y122090D02*
X421270D01*
Y115570D01*
X427290D01*
Y122090D01*
D02*
G37*
G36*
X588010Y138527D02*
X585026Y138134D01*
X582246Y136983D01*
X579858Y135151D01*
X578026Y132763D01*
X576874Y129983D01*
X576481Y126999D01*
X576874Y124015D01*
X578026Y121234D01*
X579858Y118847D01*
X582246Y117015D01*
X585026Y115863D01*
X588010Y115470D01*
X590994Y115863D01*
X593774Y117015D01*
X596162Y118847D01*
X597994Y121234D01*
X599146Y124015D01*
X599539Y126999D01*
X599146Y129983D01*
X597994Y132763D01*
X596162Y135151D01*
X593774Y136983D01*
X590994Y138134D01*
X588010Y138527D01*
D02*
G37*
G36*
X427290Y113030D02*
X421270D01*
Y106510D01*
X427290D01*
Y113030D01*
D02*
G37*
G36*
X588010Y113127D02*
X585026Y112734D01*
X582246Y111583D01*
X579858Y109751D01*
X578026Y107363D01*
X576874Y104583D01*
X576481Y101599D01*
X576874Y98615D01*
X578026Y95834D01*
X579858Y93447D01*
X582246Y91615D01*
X585026Y90463D01*
X588010Y90070D01*
X590994Y90463D01*
X593774Y91615D01*
X596162Y93447D01*
X597994Y95834D01*
X599146Y98615D01*
X599539Y101599D01*
X599146Y104583D01*
X597994Y107363D01*
X596162Y109751D01*
X593774Y111583D01*
X590994Y112734D01*
X588010Y113127D01*
D02*
G37*
G36*
X427290Y83990D02*
X421270D01*
Y77470D01*
X427290D01*
Y83990D01*
D02*
G37*
G36*
X589280Y87560D02*
Y77469D01*
X599371D01*
X599146Y79183D01*
X597994Y81963D01*
X596162Y84351D01*
X593774Y86183D01*
X590994Y87334D01*
X589280Y87560D01*
D02*
G37*
G36*
X586740D02*
X585026Y87334D01*
X582246Y86183D01*
X579858Y84351D01*
X578026Y81963D01*
X576874Y79183D01*
X576649Y77469D01*
X586740D01*
Y87560D01*
D02*
G37*
G36*
X427290Y74930D02*
X421270D01*
Y68410D01*
X427290D01*
Y74930D01*
D02*
G37*
G36*
X599371Y74929D02*
X589280D01*
Y64837D01*
X590994Y65063D01*
X593774Y66215D01*
X596162Y68047D01*
X597994Y70434D01*
X599146Y73215D01*
X599371Y74929D01*
D02*
G37*
G36*
X586740D02*
X576649D01*
X576874Y73215D01*
X578026Y70434D01*
X579858Y68047D01*
X582246Y66215D01*
X585026Y65063D01*
X586740Y64837D01*
Y74929D01*
D02*
G37*
G36*
Y56004D02*
X584262Y55512D01*
X582162Y54108D01*
X580758Y52008D01*
X580266Y49530D01*
X580758Y47052D01*
X582162Y44952D01*
X584262Y43548D01*
X586740Y43056D01*
X589218Y43548D01*
X591318Y44952D01*
X592722Y47052D01*
X593214Y49530D01*
X592722Y52008D01*
X591318Y54108D01*
X589218Y55512D01*
X586740Y56004D01*
D02*
G37*
G36*
X633730Y46969D02*
Y26670D01*
X654029D01*
X653738Y29632D01*
X652503Y33702D01*
X650498Y37453D01*
X647800Y40740D01*
X644513Y43438D01*
X640762Y45443D01*
X636692Y46678D01*
X633730Y46969D01*
D02*
G37*
G36*
X631190D02*
X628228Y46678D01*
X624158Y45443D01*
X620407Y43438D01*
X617120Y40740D01*
X614422Y37453D01*
X612417Y33702D01*
X611182Y29632D01*
X610891Y26670D01*
X631190D01*
Y46969D01*
D02*
G37*
G36*
X23700Y49037D02*
X19771Y48650D01*
X15994Y47504D01*
X12513Y45643D01*
X9461Y43139D01*
X6957Y40087D01*
X5096Y36606D01*
X3950Y32829D01*
X3563Y28900D01*
X3950Y24971D01*
X5096Y21194D01*
X6957Y17713D01*
X9461Y14661D01*
X12513Y12157D01*
X15994Y10296D01*
X19771Y9150D01*
X23700Y8763D01*
X27629Y9150D01*
X31406Y10296D01*
X34887Y12157D01*
X37939Y14661D01*
X40443Y17713D01*
X42304Y21194D01*
X43450Y24971D01*
X43837Y28900D01*
X43450Y32829D01*
X42304Y36606D01*
X40443Y40087D01*
X37939Y43139D01*
X34887Y45643D01*
X31406Y47504D01*
X27629Y48650D01*
X23700Y49037D01*
D02*
G37*
G36*
X654029Y24130D02*
X633730D01*
Y3831D01*
X636692Y4122D01*
X640762Y5357D01*
X644513Y7362D01*
X647800Y10060D01*
X650498Y13347D01*
X652503Y17098D01*
X653738Y21168D01*
X654029Y24130D01*
D02*
G37*
G36*
X631190D02*
X610891D01*
X611182Y21168D01*
X612417Y17098D01*
X614422Y13347D01*
X617120Y10060D01*
X620407Y7362D01*
X624158Y5357D01*
X628228Y4122D01*
X631190Y3831D01*
Y24130D01*
D02*
G37*
G36*
X128249D02*
X107950D01*
Y3831D01*
X110912Y4122D01*
X114982Y5357D01*
X118733Y7362D01*
X122020Y10060D01*
X124718Y13347D01*
X126723Y17098D01*
X127958Y21168D01*
X128249Y24130D01*
D02*
G37*
G36*
X105410D02*
X85111D01*
X85402Y21168D01*
X86637Y17098D01*
X88642Y13347D01*
X91340Y10060D01*
X94627Y7362D01*
X98378Y5357D01*
X102448Y4122D01*
X105410Y3831D01*
Y24130D01*
D02*
G37*
G36*
X407670Y975D02*
X404788Y596D01*
X402102Y-517D01*
X399796Y-2286D01*
X398027Y-4592D01*
X396914Y-7278D01*
X396535Y-10160D01*
X396914Y-13042D01*
X398027Y-15728D01*
X399796Y-18034D01*
X402102Y-19803D01*
X404788Y-20916D01*
X407670Y-21295D01*
X410552Y-20916D01*
X413238Y-19803D01*
X415544Y-18034D01*
X417313Y-15728D01*
X418426Y-13042D01*
X418805Y-10160D01*
X418426Y-7278D01*
X417313Y-4592D01*
X415544Y-2286D01*
X413238Y-517D01*
X410552Y596D01*
X407670Y975D01*
D02*
G37*
G36*
X382270D02*
X379388Y596D01*
X376702Y-517D01*
X374396Y-2286D01*
X372627Y-4592D01*
X371514Y-7278D01*
X371135Y-10160D01*
X371514Y-13042D01*
X372627Y-15728D01*
X374396Y-18034D01*
X376702Y-19803D01*
X379388Y-20916D01*
X382270Y-21295D01*
X385152Y-20916D01*
X387838Y-19803D01*
X390144Y-18034D01*
X391913Y-15728D01*
X393026Y-13042D01*
X393405Y-10160D01*
X393026Y-7278D01*
X391913Y-4592D01*
X390144Y-2286D01*
X387838Y-517D01*
X385152Y596D01*
X382270Y975D01*
D02*
G37*
G36*
X356870D02*
X353988Y596D01*
X351302Y-517D01*
X348996Y-2286D01*
X347227Y-4592D01*
X346114Y-7278D01*
X345735Y-10160D01*
X346114Y-13042D01*
X347227Y-15728D01*
X348996Y-18034D01*
X351302Y-19803D01*
X353988Y-20916D01*
X356870Y-21295D01*
X359752Y-20916D01*
X362438Y-19803D01*
X364744Y-18034D01*
X366513Y-15728D01*
X367626Y-13042D01*
X368005Y-10160D01*
X367626Y-7278D01*
X366513Y-4592D01*
X364744Y-2286D01*
X362438Y-517D01*
X359752Y596D01*
X356870Y975D01*
D02*
G37*
G36*
X331470D02*
X328588Y596D01*
X325902Y-517D01*
X323596Y-2286D01*
X321827Y-4592D01*
X320714Y-7278D01*
X320335Y-10160D01*
X320714Y-13042D01*
X321827Y-15728D01*
X323596Y-18034D01*
X325902Y-19803D01*
X328588Y-20916D01*
X331470Y-21295D01*
X334352Y-20916D01*
X337038Y-19803D01*
X339344Y-18034D01*
X341113Y-15728D01*
X342226Y-13042D01*
X342605Y-10160D01*
X342226Y-7278D01*
X341113Y-4592D01*
X339344Y-2286D01*
X337038Y-517D01*
X334352Y596D01*
X331470Y975D01*
D02*
G37*
G36*
X256540Y-24592D02*
Y-34290D01*
X266238D01*
X266026Y-32678D01*
X264913Y-29992D01*
X263144Y-27686D01*
X260838Y-25917D01*
X258152Y-24804D01*
X256540Y-24592D01*
D02*
G37*
G36*
X254000D02*
X252388Y-24804D01*
X249702Y-25917D01*
X247396Y-27686D01*
X245627Y-29992D01*
X244514Y-32678D01*
X244302Y-34290D01*
X254000D01*
Y-24592D01*
D02*
G37*
G36*
X266238Y-36830D02*
X256540D01*
Y-46528D01*
X258152Y-46316D01*
X260838Y-45203D01*
X263144Y-43434D01*
X264913Y-41128D01*
X266026Y-38442D01*
X266238Y-36830D01*
D02*
G37*
G36*
X254000D02*
X244302D01*
X244514Y-38442D01*
X245627Y-41128D01*
X247396Y-43434D01*
X249702Y-45203D01*
X252388Y-46316D01*
X254000Y-46528D01*
Y-36830D01*
D02*
G37*
G36*
X407670Y-24425D02*
X404788Y-24804D01*
X402102Y-25917D01*
X399796Y-27686D01*
X398027Y-29992D01*
X396914Y-32678D01*
X396535Y-35560D01*
X396914Y-38442D01*
X398027Y-41128D01*
X399796Y-43434D01*
X402102Y-45203D01*
X404788Y-46316D01*
X407670Y-46695D01*
X410552Y-46316D01*
X413238Y-45203D01*
X415544Y-43434D01*
X417313Y-41128D01*
X418426Y-38442D01*
X418805Y-35560D01*
X418426Y-32678D01*
X417313Y-29992D01*
X415544Y-27686D01*
X413238Y-25917D01*
X410552Y-24804D01*
X407670Y-24425D01*
D02*
G37*
G36*
X382270D02*
X379388Y-24804D01*
X376702Y-25917D01*
X374396Y-27686D01*
X372627Y-29992D01*
X371514Y-32678D01*
X371135Y-35560D01*
X371514Y-38442D01*
X372627Y-41128D01*
X374396Y-43434D01*
X376702Y-45203D01*
X379388Y-46316D01*
X382270Y-46695D01*
X385152Y-46316D01*
X387838Y-45203D01*
X390144Y-43434D01*
X391913Y-41128D01*
X393026Y-38442D01*
X393405Y-35560D01*
X393026Y-32678D01*
X391913Y-29992D01*
X390144Y-27686D01*
X387838Y-25917D01*
X385152Y-24804D01*
X382270Y-24425D01*
D02*
G37*
G36*
X356870D02*
X353988Y-24804D01*
X351302Y-25917D01*
X348996Y-27686D01*
X347227Y-29992D01*
X346114Y-32678D01*
X345735Y-35560D01*
X346114Y-38442D01*
X347227Y-41128D01*
X348996Y-43434D01*
X351302Y-45203D01*
X353988Y-46316D01*
X356870Y-46695D01*
X359752Y-46316D01*
X362438Y-45203D01*
X364744Y-43434D01*
X366513Y-41128D01*
X367626Y-38442D01*
X368005Y-35560D01*
X367626Y-32678D01*
X366513Y-29992D01*
X364744Y-27686D01*
X362438Y-25917D01*
X359752Y-24804D01*
X356870Y-24425D01*
D02*
G37*
G36*
X331470D02*
X328588Y-24804D01*
X325902Y-25917D01*
X323596Y-27686D01*
X321827Y-29992D01*
X320714Y-32678D01*
X320335Y-35560D01*
X320714Y-38442D01*
X321827Y-41128D01*
X323596Y-43434D01*
X325902Y-45203D01*
X328588Y-46316D01*
X331470Y-46695D01*
X334352Y-46316D01*
X337038Y-45203D01*
X339344Y-43434D01*
X341113Y-41128D01*
X342226Y-38442D01*
X342605Y-35560D01*
X342226Y-32678D01*
X341113Y-29992D01*
X339344Y-27686D01*
X337038Y-25917D01*
X334352Y-24804D01*
X331470Y-24425D01*
D02*
G37*
G36*
X306070D02*
X303188Y-24804D01*
X300502Y-25917D01*
X298196Y-27686D01*
X296427Y-29992D01*
X295314Y-32678D01*
X294935Y-35560D01*
X295314Y-38442D01*
X296427Y-41128D01*
X298196Y-43434D01*
X300502Y-45203D01*
X303188Y-46316D01*
X306070Y-46695D01*
X308952Y-46316D01*
X311638Y-45203D01*
X313944Y-43434D01*
X315713Y-41128D01*
X316826Y-38442D01*
X317205Y-35560D01*
X316826Y-32678D01*
X315713Y-29992D01*
X313944Y-27686D01*
X311638Y-25917D01*
X308952Y-24804D01*
X306070Y-24425D01*
D02*
G37*
%LPD*%
D10*
X72790Y303210D02*
X92710Y323130D01*
X184036D01*
X50800Y303210D02*
X72790D01*
X404780Y291550D02*
X405500Y290830D01*
X218023Y284897D02*
Y289143D01*
X184036Y323130D02*
X218023Y289143D01*
X50800Y328210D02*
X186140D01*
X228600Y285750D01*
D31*
X420000Y76200D02*
D03*
X405500D02*
D03*
X420000Y114300D02*
D03*
X405500D02*
D03*
X420000Y290830D02*
D03*
X405500D02*
D03*
X420000Y254000D02*
D03*
X405500D02*
D03*
D35*
X238760Y6350D02*
X255270Y-10160D01*
X120650Y50800D02*
X165100Y6350D01*
X238760D01*
X168910Y15240D02*
X260350D01*
X119260Y64890D02*
X168910Y15240D01*
X252730Y68580D02*
X265430Y55880D01*
X237490Y59446D02*
X255026Y41910D01*
X255270D01*
X237490Y59446D02*
Y111760D01*
X245110Y63500D02*
X254000Y54610D01*
X173953Y31750D02*
X248920D01*
X250190Y33020D01*
X255905Y24130D02*
X256540Y24765D01*
X170796Y24130D02*
X255905D01*
X252730Y68580D02*
Y118073D01*
X166250Y170300D02*
X200503D01*
X252730Y118073D01*
X154940Y181610D02*
X166250Y170300D01*
X154940Y181610D02*
Y190620D01*
X245110Y63500D02*
Y114916D01*
X194190Y155060D02*
X237490Y111760D01*
X159750Y162680D02*
X197346D01*
X245110Y114916D01*
X130810Y155060D02*
X194190D01*
X130810Y190620D02*
X131810D01*
X159750Y162680D01*
X153670Y52033D02*
Y87750D01*
Y52033D02*
X173953Y31750D01*
X132080Y62846D02*
X170796Y24130D01*
X132080Y62846D02*
Y87750D01*
X105410Y64890D02*
X119260D01*
X39370Y50800D02*
X120650D01*
X26670Y63500D02*
X39370Y50800D01*
X26670Y63500D02*
Y135890D01*
X40640Y149860D01*
X77470D01*
Y254860D01*
X94820Y272210D01*
X81280Y146050D02*
X90170D01*
X77470Y149860D02*
X81280Y146050D01*
X112600Y158810D02*
X113030Y158380D01*
Y146394D02*
Y158380D01*
X116840Y142240D02*
Y142584D01*
X113030Y146394D02*
X116840Y142584D01*
X101600Y142240D02*
X116840D01*
X93980D02*
X101600D01*
Y158810D01*
X90170Y158380D02*
X90600Y158810D01*
X90170Y146050D02*
Y158380D01*
Y146050D02*
X93980Y142240D01*
X101600Y272210D02*
X113030D01*
X94820D02*
X101600D01*
Y289620D01*
X112600D02*
X113030Y289190D01*
Y272210D02*
Y289190D01*
X90600Y276430D02*
X94820Y272210D01*
X287020Y323850D02*
X307340Y344170D01*
Y359664D01*
X288290Y337820D02*
Y358140D01*
X313690Y167640D02*
Y184150D01*
X289560Y143510D02*
X313690Y167640D01*
X285750Y156210D02*
X299720Y170180D01*
Y186690D01*
D36*
X274828Y6858D02*
Y57030D01*
X267970Y0D02*
X274828Y6858D01*
Y57030D02*
X449580Y231782D01*
Y304800D01*
X267970Y-20320D02*
Y0D01*
Y-20320D02*
X280670Y-33020D01*
D37*
X132080Y347980D02*
X156210Y372110D01*
X440690D02*
X469900Y342900D01*
X156210Y372110D02*
X440690D01*
X513080Y215900D02*
Y317500D01*
Y137160D02*
Y215900D01*
X358140Y87630D02*
X374650Y104140D01*
Y112480D02*
X375920Y113750D01*
X374650Y104140D02*
Y112480D01*
X359410Y73660D02*
X372830D01*
X375920Y76750D01*
X376470Y76200D02*
X405500D01*
X376470Y114300D02*
X405500D01*
X363220Y266700D02*
X375920Y279400D01*
X356870Y266700D02*
X363220D01*
X375920Y279400D02*
Y290280D01*
X358860Y253280D02*
X375920D01*
D38*
X280670Y-10160D02*
Y54610D01*
X306070Y-10160D02*
Y69850D01*
X97790Y80010D02*
X105290D01*
X90600Y87200D02*
X97790Y80010D01*
X90600Y276430D02*
Y289620D01*
X306070Y69850D02*
X464820Y228600D01*
Y279400D01*
X457200Y231140D02*
Y271780D01*
X280670Y54610D02*
X457200Y231140D01*
X280670Y-35560D02*
Y-33020D01*
X217304Y103005D02*
Y106814D01*
X196315Y127804D02*
X217304Y106814D01*
X101600Y115570D02*
X107738Y121708D01*
X143722D02*
X153670Y111760D01*
X107738Y121708D02*
X143722D01*
X113030Y113030D02*
X115612Y115612D01*
X126958D02*
X132080Y110490D01*
X115612Y115612D02*
X126958D01*
X88900Y127804D02*
X196315D01*
X198840Y133900D02*
X227330Y105410D01*
X50800Y133900D02*
X198840D01*
X50800Y108900D02*
X69996D01*
X88900Y127804D01*
X375920Y76750D02*
X376470Y76200D01*
X375920Y113750D02*
X376470Y114300D01*
X404060Y290830D02*
X404780Y291550D01*
X375920Y290280D02*
X376470Y290830D01*
X358140Y254000D02*
X358860Y253280D01*
X153670Y102750D02*
Y111760D01*
X132080Y102750D02*
Y110490D01*
X101600Y102810D02*
Y115570D01*
X112600Y102810D02*
X113030Y103240D01*
Y113030D01*
X105290Y80010D02*
X105410Y79890D01*
X90600Y87200D02*
Y102810D01*
X154940Y205620D02*
Y213360D01*
X114937Y218186D02*
X150114D01*
X154940Y213360D01*
X116960Y205620D02*
X130810D01*
X101600Y220980D02*
X116960Y205620D01*
X111880Y180220D02*
Y200540D01*
X90600Y221820D02*
Y233620D01*
Y221820D02*
X111880Y200540D01*
X130690Y170180D02*
X130810Y170060D01*
X121920Y170180D02*
X130690D01*
X111880Y180220D02*
X121920Y170180D01*
X112600Y220523D02*
Y233620D01*
Y220523D02*
X114937Y218186D01*
X101600Y220980D02*
Y233620D01*
D39*
X218023Y284897D02*
D03*
X228600Y285750D02*
D03*
X265430Y55880D02*
D03*
X255270Y41910D02*
D03*
X254000Y54610D02*
D03*
X250190Y33020D02*
D03*
X256540Y24765D02*
D03*
X260350Y15240D02*
D03*
X116840Y142240D02*
D03*
X287020Y323850D02*
D03*
X288290Y337820D02*
D03*
Y358140D02*
D03*
X307340Y359664D02*
D03*
X449580Y304800D02*
D03*
X464820Y279400D02*
D03*
X457200Y271780D02*
D03*
X227330Y105410D02*
D03*
X217304Y103005D02*
D03*
X358140Y87630D02*
D03*
X359410Y73660D02*
D03*
X356870Y266700D02*
D03*
X358140Y254000D02*
D03*
D40*
X632460Y367030D02*
D03*
Y25400D02*
D03*
X106680Y367030D02*
D03*
Y25400D02*
D03*
D41*
X588010Y317499D02*
D03*
Y292099D02*
D03*
Y266699D02*
D03*
Y241299D02*
D03*
Y152399D02*
D03*
Y126999D02*
D03*
Y101599D02*
D03*
Y76199D02*
D03*
D42*
X331470Y-35560D02*
D03*
X306070D02*
D03*
X280670D02*
D03*
X255270D02*
D03*
X331470Y-10160D02*
D03*
X306070D02*
D03*
X280670D02*
D03*
X255270D02*
D03*
X356870D02*
D03*
Y-35560D02*
D03*
X382270Y-10160D02*
D03*
Y-35560D02*
D03*
X407670Y-10160D02*
D03*
Y-35560D02*
D03*
D43*
X23700Y223210D02*
D03*
Y363210D02*
D03*
Y28900D02*
D03*
Y168900D02*
D03*
D44*
X50800Y258210D02*
D03*
Y283210D02*
D03*
Y303210D02*
D03*
Y328210D02*
D03*
Y63900D02*
D03*
Y88900D02*
D03*
Y108900D02*
D03*
Y133900D02*
D03*
D45*
X132080Y347980D02*
D03*
X469900Y342900D02*
D03*
X513080Y215900D02*
D03*
X118110Y271780D02*
D03*
X289560Y143510D02*
D03*
X285750Y156210D02*
D03*
X313690Y184150D02*
D03*
X299720Y186690D02*
D03*
X513080Y137160D02*
D03*
Y317500D02*
D03*
X586740Y49530D02*
D03*
D46*
X375920Y113750D02*
D03*
Y76750D02*
D03*
Y290280D02*
D03*
Y253280D02*
D03*
D47*
X132080Y102750D02*
D03*
Y87750D02*
D03*
X153670Y102750D02*
D03*
Y87750D02*
D03*
X105410Y79890D02*
D03*
Y64890D02*
D03*
X130810Y205620D02*
D03*
Y190620D02*
D03*
X154940Y205620D02*
D03*
Y190620D02*
D03*
X130810Y170060D02*
D03*
Y155060D02*
D03*
D48*
X101600Y158810D02*
D03*
X112600Y102810D02*
D03*
X90600Y158810D02*
D03*
X112600D02*
D03*
X90600Y102810D02*
D03*
X101600D02*
D03*
Y289620D02*
D03*
X112600Y233620D02*
D03*
X90600Y289620D02*
D03*
X112600D02*
D03*
X90600Y233620D02*
D03*
X101600D02*
D03*
D49*
X376640Y254000D02*
X405500D01*
X375920Y253280D02*
X376640Y254000D01*
X376470Y290830D02*
X404060D01*
M02*
