G04*
G04 #@! TF.GenerationSoftware,Altium Limited,Altium Designer,20.0.13 (296)*
G04*
G04 Layer_Color=16711935*
%FSLAX44Y44*%
%MOMM*%
G71*
G01*
G75*
%ADD18R,1.1532X1.2532*%
%ADD22C,0.8382*%
%ADD23C,4.0132*%
%ADD24C,1.9812*%
%ADD25C,1.9032*%
%ADD26C,3.7032*%
%ADD27O,2.7032X1.7272*%
%ADD28C,0.9652*%
%ADD50R,2.2032X1.9032*%
%ADD51R,1.3032X1.1032*%
%ADD52R,0.8032X1.6032*%
D18*
X420000Y76200D02*
D03*
X405500D02*
D03*
X420000Y114300D02*
D03*
X405500D02*
D03*
X420000Y290830D02*
D03*
X405500D02*
D03*
X420000Y254000D02*
D03*
X405500D02*
D03*
D22*
X218023Y284897D02*
D03*
X228600Y285750D02*
D03*
X265430Y55880D02*
D03*
X255270Y41910D02*
D03*
X254000Y54610D02*
D03*
X250190Y33020D02*
D03*
X256540Y24765D02*
D03*
X260350Y15240D02*
D03*
X116840Y142240D02*
D03*
X287020Y323850D02*
D03*
X288290Y337820D02*
D03*
Y358140D02*
D03*
X307340Y359664D02*
D03*
X449580Y304800D02*
D03*
X464820Y279400D02*
D03*
X457200Y271780D02*
D03*
X227330Y105410D02*
D03*
X217304Y103005D02*
D03*
X358140Y87630D02*
D03*
X359410Y73660D02*
D03*
X356870Y266700D02*
D03*
X358140Y254000D02*
D03*
D23*
X632460Y367030D02*
D03*
Y25400D02*
D03*
X106680Y367030D02*
D03*
Y25400D02*
D03*
D24*
X588010Y317499D02*
D03*
Y292099D02*
D03*
Y266699D02*
D03*
Y241299D02*
D03*
Y152399D02*
D03*
Y126999D02*
D03*
Y101599D02*
D03*
Y76199D02*
D03*
D25*
X331470Y-35560D02*
D03*
X306070D02*
D03*
X280670D02*
D03*
X255270D02*
D03*
X331470Y-10160D02*
D03*
X306070D02*
D03*
X280670D02*
D03*
X255270D02*
D03*
X356870D02*
D03*
Y-35560D02*
D03*
X382270Y-10160D02*
D03*
Y-35560D02*
D03*
X407670Y-10160D02*
D03*
Y-35560D02*
D03*
D26*
X23700Y223210D02*
D03*
Y363210D02*
D03*
Y28900D02*
D03*
Y168900D02*
D03*
D27*
X50800Y258210D02*
D03*
Y283210D02*
D03*
Y303210D02*
D03*
Y328210D02*
D03*
Y63900D02*
D03*
Y88900D02*
D03*
Y108900D02*
D03*
Y133900D02*
D03*
D28*
X132080Y347980D02*
D03*
X469900Y342900D02*
D03*
X513080Y215900D02*
D03*
X118110Y271780D02*
D03*
X289560Y143510D02*
D03*
X285750Y156210D02*
D03*
X313690Y184150D02*
D03*
X299720Y186690D02*
D03*
X513080Y137160D02*
D03*
Y317500D02*
D03*
X586740Y49530D02*
D03*
D50*
X375920Y113750D02*
D03*
Y76750D02*
D03*
Y290280D02*
D03*
Y253280D02*
D03*
D51*
X132080Y102750D02*
D03*
Y87750D02*
D03*
X153670Y102750D02*
D03*
Y87750D02*
D03*
X105410Y79890D02*
D03*
Y64890D02*
D03*
X130810Y205620D02*
D03*
Y190620D02*
D03*
X154940Y205620D02*
D03*
Y190620D02*
D03*
X130810Y170060D02*
D03*
Y155060D02*
D03*
D52*
X101600Y158810D02*
D03*
X112600Y102810D02*
D03*
X90600Y158810D02*
D03*
X112600D02*
D03*
X90600Y102810D02*
D03*
X101600D02*
D03*
Y289620D02*
D03*
X112600Y233620D02*
D03*
X90600Y289620D02*
D03*
X112600D02*
D03*
X90600Y233620D02*
D03*
X101600D02*
D03*
M02*
